<svg width="234" height="65" viewBox="0 0 234 65" fill="none" xmlns="http://www.w3.org/2000/svg">
<g clip-path="url(#clip0_1_296)">
<path d="M56.6748 25.4811C55.3333 25.6435 53.9424 25.6435 52.5162 25.4599C45.3146 24.5209 39.5322 18.7385 38.5931 11.5369C38.4096 10.1107 38.4096 8.71976 38.572 7.37829C39.0379 3.58685 36.009 0.197867 32.1823 0.183746H32.0976C14.143 0.183746 -0.337857 15.0812 0.347001 33.1911C0.975376 49.6559 14.3901 63.0777 30.855 63.699C48.9649 64.3839 63.8623 49.9101 63.8623 31.9485V31.8637C63.8482 28.0441 60.4592 25.0151 56.6677 25.4741L56.6748 25.4811Z" fill="#83A6E4"/>
<path d="M52.1707 20.1223C55.2772 20.6166 58.1579 19.6775 60.283 17.863C61.7657 16.5992 62.1752 14.4105 61.2786 12.6736C59.1393 8.50094 55.7573 5.07665 51.6129 2.88793C49.6783 1.86417 47.2849 2.3231 45.9222 4.03877C44.2701 6.12865 43.4369 8.89632 43.9029 11.8617C44.5666 16.0556 47.9697 19.4587 52.1636 20.1223H52.1707Z" fill="#83A6E4"/>
<path d="M81.0406 38.1972C78.1105 38.1972 75.7947 37.3287 74.0861 35.5848L75.9854 32.923C77.3974 34.4057 79.1414 35.1471 81.2171 35.1471C82.1208 35.1471 82.8269 34.9706 83.3282 34.6175C83.8295 34.2645 84.0836 33.8338 84.0836 33.3255C84.0836 32.8807 83.8506 32.5135 83.3776 32.217C82.9045 31.9205 82.3256 31.7087 81.6266 31.5745C80.9276 31.4404 80.1651 31.2568 79.3461 31.0097C78.52 30.7626 77.7646 30.4802 77.0656 30.1695C76.3666 29.8588 75.7806 29.3646 75.3146 28.6868C74.8486 28.009 74.6086 27.19 74.6086 26.2227C74.6086 24.8107 75.1734 23.6175 76.3101 22.6572C77.4469 21.697 78.9578 21.2169 80.85 21.2169C83.4623 21.2169 85.6016 21.9794 87.2679 23.5115L85.3192 26.0745C84.0201 24.8742 82.4244 24.2741 80.5323 24.2741C79.7909 24.2741 79.219 24.4223 78.8025 24.7189C78.393 25.0154 78.1882 25.4179 78.1882 25.9262C78.1882 26.3216 78.4212 26.6534 78.8942 26.9288C79.3602 27.1971 79.9462 27.4018 80.6452 27.536C81.3442 27.6701 82.0997 27.8607 82.9187 28.1149C83.7306 28.3691 84.4861 28.6586 85.1921 28.9763C85.8911 29.294 86.4771 29.8024 86.9431 30.4802C87.4091 31.165 87.6491 31.984 87.6491 32.9372C87.6491 34.5187 87.0843 35.7896 85.9617 36.7639C84.832 37.7382 83.2011 38.2183 81.0618 38.2183L81.0406 38.1972Z" fill="#83A6E4"/>
<path d="M95.1543 38.1969C94.0529 38.1969 93.2127 37.9145 92.6408 37.3567C92.0619 36.799 91.7795 35.9941 91.7795 34.9421V28.7219H89.8026V25.9824H91.7795V22.7276H94.9355V25.9824H97.3501V28.7219H94.9355V34.1019C94.9355 34.4832 95.0343 34.7938 95.232 35.0409C95.4297 35.288 95.6909 35.4081 96.0227 35.4081C96.517 35.4081 96.8771 35.2951 97.1101 35.0621L97.7737 37.4273C97.1948 37.9357 96.3264 38.1899 95.1614 38.1899L95.1543 38.1969Z" fill="#83A6E4"/>
<path d="M111.019 37.9004H107.884V36.6648C107.03 37.6815 105.773 38.1969 104.107 38.1969C103.041 38.1969 102.081 37.851 101.233 37.152C100.386 36.453 99.9625 35.4857 99.9625 34.2502C99.9625 33.0146 100.379 32.005 101.212 31.3625C102.045 30.72 103.005 30.4023 104.114 30.4023C105.808 30.4023 107.065 30.8894 107.891 31.8567V30.254C107.891 29.6468 107.651 29.1596 107.178 28.7995C106.698 28.4395 106.07 28.2559 105.279 28.2559C103.98 28.2559 102.822 28.7219 101.798 29.6609L100.612 27.564C102.024 26.3143 103.761 25.6859 105.816 25.6859C107.348 25.6859 108.597 26.0389 109.565 26.745C110.539 27.451 111.019 28.6019 111.019 30.1975V37.8933V37.9004ZM105.371 36.0718C106.536 36.0718 107.376 35.7258 107.884 35.0339V33.5512C107.376 32.8593 106.536 32.5133 105.371 32.5133C104.728 32.5133 104.192 32.6757 103.768 32.9934C103.344 33.3111 103.126 33.7559 103.126 34.3137C103.126 34.8715 103.337 35.288 103.768 35.5987C104.199 35.9094 104.728 36.0647 105.371 36.0647V36.0718Z" fill="#83A6E4"/>
<path d="M118.496 37.9004H115.361V25.9825H118.496V27.6134C118.941 27.0556 119.506 26.5967 120.198 26.2296C120.889 25.8695 121.588 25.6859 122.294 25.6859V28.7431C122.083 28.6936 121.793 28.6725 121.433 28.6725C120.904 28.6725 120.346 28.8066 119.753 29.0678C119.16 29.3291 118.743 29.6539 118.496 30.0281V37.9004Z" fill="#83A6E4"/>
<path d="M133.69 38.1969C131.325 38.1969 129.341 37.4062 127.745 35.8176C126.149 34.229 125.352 32.1885 125.352 29.6892C125.352 27.1898 126.149 25.1423 127.745 23.5607C129.341 21.9722 131.325 21.1814 133.69 21.1814C136.055 21.1814 138.124 22.1557 139.684 24.0903L138.498 24.8528C137.969 24.1326 137.284 23.5466 136.422 23.1159C135.568 22.6782 134.657 22.4593 133.683 22.4593C131.727 22.4593 130.096 23.1371 128.783 24.4857C127.477 25.8342 126.82 27.5711 126.82 29.6892C126.82 31.8073 127.477 33.523 128.783 34.8856C130.089 36.2412 131.72 36.919 133.683 36.919C134.657 36.919 135.568 36.7001 136.422 36.2624C137.277 35.8246 137.969 35.2457 138.498 34.5255L139.684 35.2669C138.103 37.2226 136.105 38.204 133.69 38.204V38.1969Z" fill="#D3D3D3"/>
<path d="M148.771 38.1969C147.062 38.1969 145.679 37.5968 144.627 36.3965C143.575 35.1963 143.045 33.7065 143.045 31.9273C143.045 30.1481 143.575 28.6654 144.627 27.4722C145.679 26.279 147.062 25.6859 148.771 25.6859C150.48 25.6859 151.892 26.279 152.944 27.4722C153.996 28.6654 154.525 30.1481 154.525 31.9273C154.525 33.7065 153.996 35.1892 152.944 36.3965C151.892 37.5968 150.501 38.1969 148.771 38.1969ZM148.771 37.039C150.119 37.039 151.186 36.5448 151.969 35.5493C152.753 34.5538 153.141 33.3464 153.141 31.9344C153.141 30.5223 152.753 29.3361 151.969 28.3477C151.186 27.3522 150.119 26.8579 148.771 26.8579C147.422 26.8579 146.385 27.3592 145.601 28.3477C144.817 29.3432 144.429 30.5364 144.429 31.9344C144.429 33.3323 144.817 34.5326 145.601 35.5352C146.385 36.5377 147.437 37.039 148.771 37.039Z" fill="#D3D3D3"/>
<path d="M174.527 37.9004H173.242V29.562C173.242 27.7546 172.444 26.8509 170.849 26.8509C170.22 26.8509 169.585 27.0485 168.935 27.4439C168.286 27.8393 167.792 28.3124 167.446 28.8772V37.9074H166.14V29.5691C166.14 27.7616 165.342 26.8579 163.746 26.8579C163.139 26.8579 162.51 27.0627 161.868 27.4651C161.225 27.8676 160.717 28.3477 160.336 28.9054V37.9145H159.051V25.9966H160.336V27.7969C160.632 27.3168 161.155 26.8509 161.903 26.3919C162.652 25.933 163.414 25.7 164.184 25.7C165.052 25.7 165.751 25.9118 166.281 26.3425C166.81 26.7732 167.149 27.3027 167.319 27.9452C167.679 27.3521 168.229 26.8297 168.971 26.3778C169.712 25.9259 170.475 25.7 171.265 25.7C173.44 25.7 174.52 26.9073 174.52 29.3291V37.9145L174.527 37.9004Z" fill="#D3D3D3"/>
<path d="M185.188 38.1969C183.48 38.1969 182.096 37.4556 181.044 35.98V42.4473H179.759V25.9895H181.044V27.8676C181.489 27.2251 182.075 26.7026 182.809 26.3002C183.543 25.8977 184.334 25.693 185.188 25.693C186.784 25.693 188.069 26.2578 189.05 27.3804C190.032 28.5101 190.519 30.0281 190.519 31.9344C190.519 33.8407 190.032 35.3445 189.05 36.4883C188.069 37.6321 186.784 38.204 185.188 38.204V38.1969ZM184.963 37.039C186.262 37.039 187.285 36.566 188.02 35.6058C188.761 34.6526 189.128 33.4241 189.128 31.9273C189.128 30.4305 188.761 29.2302 188.02 28.2771C187.278 27.3239 186.262 26.8438 184.963 26.8438C184.158 26.8438 183.395 27.0486 182.668 27.4581C181.941 27.8676 181.404 28.3689 181.037 28.962V34.8574C181.397 35.4505 181.948 35.9588 182.675 36.3895C183.409 36.8202 184.165 37.032 184.955 37.032L184.963 37.039Z" fill="#D3D3D3"/>
<path d="M203.842 37.9004H202.557V36.4954C201.519 37.6321 200.171 38.1969 198.511 38.1969C197.41 38.1969 196.436 37.8368 195.603 37.1237C194.762 36.4106 194.346 35.4434 194.346 34.2219C194.346 33.0005 194.762 32.0191 195.588 31.3201C196.422 30.6211 197.396 30.2681 198.511 30.2681C200.192 30.2681 201.54 30.8329 202.557 31.9696V29.555C202.557 28.7007 202.253 28.0299 201.646 27.5428C201.039 27.0556 200.269 26.8156 199.352 26.8156C197.89 26.8156 196.647 27.4016 195.624 28.5665L194.911 27.6769C196.146 26.3425 197.671 25.6788 199.5 25.6788C200.785 25.6788 201.83 25.9966 202.635 26.639C203.44 27.2815 203.842 28.2347 203.842 29.4985V37.8863V37.9004ZM198.956 37.1873C200.517 37.1873 201.717 36.6436 202.557 35.5563V32.944C201.703 31.8426 200.502 31.2918 198.956 31.2918C197.982 31.2918 197.198 31.5743 196.598 32.132C195.998 32.6898 195.694 33.3958 195.694 34.2572C195.694 35.1186 195.991 35.8176 196.598 36.3683C197.198 36.919 197.982 37.1943 198.956 37.1943V37.1873Z" fill="#D3D3D3"/>
<path d="M218.401 37.9004H217.116V29.8304C217.116 28.7431 216.868 27.9735 216.374 27.5216C215.88 27.0698 215.167 26.8438 214.228 26.8438C213.487 26.8438 212.759 27.0415 212.032 27.4369C211.305 27.8323 210.747 28.3194 210.352 28.8913V37.9004H209.067V25.9825H210.352V27.7829C210.825 27.2251 211.46 26.7309 212.251 26.3143C213.042 25.8977 213.84 25.6859 214.644 25.6859C217.144 25.6859 218.393 26.978 218.393 29.5621V37.9004H218.401Z" fill="#D3D3D3"/>
<path d="M222.842 42.5673L223.06 41.3811C223.357 41.5153 223.703 41.5788 224.098 41.5788C224.903 41.5788 225.503 41.0917 225.899 40.1244L226.838 37.9992L221.804 25.9824H223.237L227.579 36.3965L231.872 25.9824H233.326L227.155 40.5127C226.527 41.9954 225.51 42.7367 224.098 42.7367C223.639 42.7367 223.216 42.6802 222.842 42.5673Z" fill="#D3D3D3"/>
</g>
<defs>
<clipPath id="clip0_1_296">
<rect width="233" height="64" fill="white" transform="translate(0.326172 0.183777)"/>
</clipPath>
</defs>
</svg>
